<mxfile host="65bd71144e">
    <diagram id="pxomWMBkX-mzmQQoBQQE" name="Page-1">
        <mxGraphModel dx="1816" dy="1299" grid="1" gridSize="10" guides="1" tooltips="1" connect="1" arrows="1" fold="1" page="0" pageScale="1" pageWidth="690" pageHeight="980" background="none" math="0" shadow="0">
            <root>
                <mxCell id="0"/>
                <mxCell id="1" parent="0"/>
                <mxCell id="o3EUqEFCxauuxiUmKvcj-5" value="Acteur&#10;" style="swimlane;fontStyle=1;align=center;verticalAlign=top;childLayout=stackLayout;horizontal=1;startSize=26;horizontalStack=0;resizeParent=1;resizeParentMax=0;resizeLast=0;collapsible=1;marginBottom=0;" vertex="1" parent="1">
                    <mxGeometry x="-240" y="44" width="160" height="182" as="geometry"/>
                </mxCell>
                <mxCell id="o3EUqEFCxauuxiUmKvcj-15" value="Extends" style="endArrow=block;endSize=16;endFill=0;html=1;entryX=0;entryY=0.5;entryDx=0;entryDy=0;" edge="1" parent="o3EUqEFCxauuxiUmKvcj-5" target="o3EUqEFCxauuxiUmKvcj-52">
                    <mxGeometry width="160" relative="1" as="geometry">
                        <mxPoint x="20" as="sourcePoint"/>
                        <mxPoint x="20" y="-30" as="targetPoint"/>
                    </mxGeometry>
                </mxCell>
                <mxCell id="o3EUqEFCxauuxiUmKvcj-61" value="rôle: string&#10;" style="text;strokeColor=none;fillColor=none;align=left;verticalAlign=top;spacingLeft=4;spacingRight=4;overflow=hidden;rotatable=0;points=[[0,0.5],[1,0.5]];portConstraint=eastwest;" vertex="1" parent="o3EUqEFCxauuxiUmKvcj-5">
                    <mxGeometry y="26" width="160" height="24" as="geometry"/>
                </mxCell>
                <mxCell id="o3EUqEFCxauuxiUmKvcj-58" value="langue: string" style="text;strokeColor=none;fillColor=none;align=left;verticalAlign=top;spacingLeft=4;spacingRight=4;overflow=hidden;rotatable=0;points=[[0,0.5],[1,0.5]];portConstraint=eastwest;" vertex="1" parent="o3EUqEFCxauuxiUmKvcj-5">
                    <mxGeometry y="50" width="160" height="20" as="geometry"/>
                </mxCell>
                <mxCell id="o3EUqEFCxauuxiUmKvcj-7" value="" style="line;strokeWidth=1;fillColor=none;align=left;verticalAlign=middle;spacingTop=-1;spacingLeft=3;spacingRight=3;rotatable=0;labelPosition=right;points=[];portConstraint=eastwest;" vertex="1" parent="o3EUqEFCxauuxiUmKvcj-5">
                    <mxGeometry y="70" width="160" height="8" as="geometry"/>
                </mxCell>
                <mxCell id="o3EUqEFCxauuxiUmKvcj-8" value="modifierRôle(string):string" style="text;strokeColor=none;fillColor=none;align=left;verticalAlign=top;spacingLeft=4;spacingRight=4;overflow=hidden;rotatable=0;points=[[0,0.5],[1,0.5]];portConstraint=eastwest;" vertex="1" parent="o3EUqEFCxauuxiUmKvcj-5">
                    <mxGeometry y="78" width="160" height="26" as="geometry"/>
                </mxCell>
                <mxCell id="o3EUqEFCxauuxiUmKvcj-116" value="modifierlangue(string): string" style="text;strokeColor=none;fillColor=none;align=left;verticalAlign=top;spacingLeft=4;spacingRight=4;overflow=hidden;rotatable=0;points=[[0,0.5],[1,0.5]];portConstraint=eastwest;" vertex="1" parent="o3EUqEFCxauuxiUmKvcj-5">
                    <mxGeometry y="104" width="160" height="26" as="geometry"/>
                </mxCell>
                <mxCell id="o3EUqEFCxauuxiUmKvcj-117" value="lireRôle(): string" style="text;strokeColor=none;fillColor=none;align=left;verticalAlign=top;spacingLeft=4;spacingRight=4;overflow=hidden;rotatable=0;points=[[0,0.5],[1,0.5]];portConstraint=eastwest;" vertex="1" parent="o3EUqEFCxauuxiUmKvcj-5">
                    <mxGeometry y="130" width="160" height="26" as="geometry"/>
                </mxCell>
                <mxCell id="o3EUqEFCxauuxiUmKvcj-118" value="lireLangue(): string" style="text;strokeColor=none;fillColor=none;align=left;verticalAlign=top;spacingLeft=4;spacingRight=4;overflow=hidden;rotatable=0;points=[[0,0.5],[1,0.5]];portConstraint=eastwest;" vertex="1" parent="o3EUqEFCxauuxiUmKvcj-5">
                    <mxGeometry y="156" width="160" height="26" as="geometry"/>
                </mxCell>
                <mxCell id="o3EUqEFCxauuxiUmKvcj-9" value="Réalisateur&#10;" style="swimlane;fontStyle=1;align=center;verticalAlign=top;childLayout=stackLayout;horizontal=1;startSize=26;horizontalStack=0;resizeParent=1;resizeParentMax=0;resizeLast=0;collapsible=1;marginBottom=0;" vertex="1" parent="1">
                    <mxGeometry y="44" width="230" height="190" as="geometry"/>
                </mxCell>
                <mxCell id="o3EUqEFCxauuxiUmKvcj-16" value="Extends" style="endArrow=block;endSize=16;endFill=0;html=1;entryX=0.91;entryY=1.138;entryDx=0;entryDy=0;entryPerimeter=0;" edge="1" parent="o3EUqEFCxauuxiUmKvcj-9" target="o3EUqEFCxauuxiUmKvcj-44">
                    <mxGeometry width="160" relative="1" as="geometry">
                        <mxPoint x="70" as="sourcePoint"/>
                        <mxPoint x="-130" y="-94.81481481481467" as="targetPoint"/>
                    </mxGeometry>
                </mxCell>
                <mxCell id="i4w1u3LMX8sEiAKsct7O-13" value="profession: string" style="text;strokeColor=none;fillColor=none;align=left;verticalAlign=top;spacingLeft=4;spacingRight=4;overflow=hidden;rotatable=0;points=[[0,0.5],[1,0.5]];portConstraint=eastwest;" vertex="1" parent="o3EUqEFCxauuxiUmKvcj-9">
                    <mxGeometry y="26" width="230" height="26" as="geometry"/>
                </mxCell>
                <mxCell id="o3EUqEFCxauuxiUmKvcj-10" value="années d'expérience: number" style="text;strokeColor=none;fillColor=none;align=left;verticalAlign=top;spacingLeft=4;spacingRight=4;overflow=hidden;rotatable=0;points=[[0,0.5],[1,0.5]];portConstraint=eastwest;" vertex="1" parent="o3EUqEFCxauuxiUmKvcj-9">
                    <mxGeometry y="52" width="230" height="26" as="geometry"/>
                </mxCell>
                <mxCell id="o3EUqEFCxauuxiUmKvcj-11" value="" style="line;strokeWidth=1;fillColor=none;align=left;verticalAlign=middle;spacingTop=-1;spacingLeft=3;spacingRight=3;rotatable=0;labelPosition=right;points=[];portConstraint=eastwest;" vertex="1" parent="o3EUqEFCxauuxiUmKvcj-9">
                    <mxGeometry y="78" width="230" height="8" as="geometry"/>
                </mxCell>
                <mxCell id="o3EUqEFCxauuxiUmKvcj-12" value="modifierProfession(String):string" style="text;strokeColor=none;fillColor=none;align=left;verticalAlign=top;spacingLeft=4;spacingRight=4;overflow=hidden;rotatable=0;points=[[0,0.5],[1,0.5]];portConstraint=eastwest;" vertex="1" parent="o3EUqEFCxauuxiUmKvcj-9">
                    <mxGeometry y="86" width="230" height="26" as="geometry"/>
                </mxCell>
                <mxCell id="o3EUqEFCxauuxiUmKvcj-119" value="modifierAnneesExperience(String):string" style="text;strokeColor=none;fillColor=none;align=left;verticalAlign=top;spacingLeft=4;spacingRight=4;overflow=hidden;rotatable=0;points=[[0,0.5],[1,0.5]];portConstraint=eastwest;" vertex="1" parent="o3EUqEFCxauuxiUmKvcj-9">
                    <mxGeometry y="112" width="230" height="26" as="geometry"/>
                </mxCell>
                <mxCell id="o3EUqEFCxauuxiUmKvcj-120" value="lireAnneesExperience():number" style="text;strokeColor=none;fillColor=none;align=left;verticalAlign=top;spacingLeft=4;spacingRight=4;overflow=hidden;rotatable=0;points=[[0,0.5],[1,0.5]];portConstraint=eastwest;" vertex="1" parent="o3EUqEFCxauuxiUmKvcj-9">
                    <mxGeometry y="138" width="230" height="26" as="geometry"/>
                </mxCell>
                <mxCell id="o3EUqEFCxauuxiUmKvcj-121" value="lireProfession():string" style="text;strokeColor=none;fillColor=none;align=left;verticalAlign=top;spacingLeft=4;spacingRight=4;overflow=hidden;rotatable=0;points=[[0,0.5],[1,0.5]];portConstraint=eastwest;" vertex="1" parent="o3EUqEFCxauuxiUmKvcj-9">
                    <mxGeometry y="164" width="230" height="26" as="geometry"/>
                </mxCell>
                <mxCell id="o3EUqEFCxauuxiUmKvcj-17" value="Réservation&#10;" style="swimlane;fontStyle=1;align=center;verticalAlign=top;childLayout=stackLayout;horizontal=1;startSize=26;horizontalStack=0;resizeParent=1;resizeParentMax=0;resizeLast=0;collapsible=1;marginBottom=0;" vertex="1" parent="1">
                    <mxGeometry x="810" y="430" width="240" height="736" as="geometry"/>
                </mxCell>
                <mxCell id="o3EUqEFCxauuxiUmKvcj-18" value="projection:string" style="text;strokeColor=none;fillColor=none;align=left;verticalAlign=top;spacingLeft=4;spacingRight=4;overflow=hidden;rotatable=0;points=[[0,0.5],[1,0.5]];portConstraint=eastwest;" vertex="1" parent="o3EUqEFCxauuxiUmKvcj-17">
                    <mxGeometry y="26" width="240" height="26" as="geometry"/>
                </mxCell>
                <mxCell id="o3EUqEFCxauuxiUmKvcj-65" value="numéro de réservation: string" style="text;strokeColor=none;fillColor=none;align=left;verticalAlign=top;spacingLeft=4;spacingRight=4;overflow=hidden;rotatable=0;points=[[0,0.5],[1,0.5]];portConstraint=eastwest;" vertex="1" parent="o3EUqEFCxauuxiUmKvcj-17">
                    <mxGeometry y="52" width="240" height="26" as="geometry"/>
                </mxCell>
                <mxCell id="o3EUqEFCxauuxiUmKvcj-66" value="code du billet: string" style="text;strokeColor=none;fillColor=none;align=left;verticalAlign=top;spacingLeft=4;spacingRight=4;overflow=hidden;rotatable=0;points=[[0,0.5],[1,0.5]];portConstraint=eastwest;" vertex="1" parent="o3EUqEFCxauuxiUmKvcj-17">
                    <mxGeometry y="78" width="240" height="26" as="geometry"/>
                </mxCell>
                <mxCell id="o3EUqEFCxauuxiUmKvcj-67" value="nom du client: string" style="text;strokeColor=none;fillColor=none;align=left;verticalAlign=top;spacingLeft=4;spacingRight=4;overflow=hidden;rotatable=0;points=[[0,0.5],[1,0.5]];portConstraint=eastwest;" vertex="1" parent="o3EUqEFCxauuxiUmKvcj-17">
                    <mxGeometry y="104" width="240" height="26" as="geometry"/>
                </mxCell>
                <mxCell id="o3EUqEFCxauuxiUmKvcj-68" value="âge: number" style="text;strokeColor=none;fillColor=none;align=left;verticalAlign=top;spacingLeft=4;spacingRight=4;overflow=hidden;rotatable=0;points=[[0,0.5],[1,0.5]];portConstraint=eastwest;" vertex="1" parent="o3EUqEFCxauuxiUmKvcj-17">
                    <mxGeometry y="130" width="240" height="26" as="geometry"/>
                </mxCell>
                <mxCell id="o3EUqEFCxauuxiUmKvcj-69" value="téléphone: string" style="text;strokeColor=none;fillColor=none;align=left;verticalAlign=top;spacingLeft=4;spacingRight=4;overflow=hidden;rotatable=0;points=[[0,0.5],[1,0.5]];portConstraint=eastwest;" vertex="1" parent="o3EUqEFCxauuxiUmKvcj-17">
                    <mxGeometry y="156" width="240" height="26" as="geometry"/>
                </mxCell>
                <mxCell id="o3EUqEFCxauuxiUmKvcj-70" value="adresse courriel: string" style="text;strokeColor=none;fillColor=none;align=left;verticalAlign=top;spacingLeft=4;spacingRight=4;overflow=hidden;rotatable=0;points=[[0,0.5],[1,0.5]];portConstraint=eastwest;" vertex="1" parent="o3EUqEFCxauuxiUmKvcj-17">
                    <mxGeometry y="182" width="240" height="26" as="geometry"/>
                </mxCell>
                <mxCell id="o3EUqEFCxauuxiUmKvcj-71" value="code postal: string" style="text;strokeColor=none;fillColor=none;align=left;verticalAlign=top;spacingLeft=4;spacingRight=4;overflow=hidden;rotatable=0;points=[[0,0.5],[1,0.5]];portConstraint=eastwest;" vertex="1" parent="o3EUqEFCxauuxiUmKvcj-17">
                    <mxGeometry y="208" width="240" height="26" as="geometry"/>
                </mxCell>
                <mxCell id="o3EUqEFCxauuxiUmKvcj-72" value="montant: number" style="text;strokeColor=none;fillColor=none;align=left;verticalAlign=top;spacingLeft=4;spacingRight=4;overflow=hidden;rotatable=0;points=[[0,0.5],[1,0.5]];portConstraint=eastwest;" vertex="1" parent="o3EUqEFCxauuxiUmKvcj-17">
                    <mxGeometry y="234" width="240" height="26" as="geometry"/>
                </mxCell>
                <mxCell id="o3EUqEFCxauuxiUmKvcj-19" value="" style="line;strokeWidth=1;fillColor=none;align=left;verticalAlign=middle;spacingTop=-1;spacingLeft=3;spacingRight=3;rotatable=0;labelPosition=right;points=[];portConstraint=eastwest;" vertex="1" parent="o3EUqEFCxauuxiUmKvcj-17">
                    <mxGeometry y="260" width="240" height="8" as="geometry"/>
                </mxCell>
                <mxCell id="o3EUqEFCxauuxiUmKvcj-20" value="modifierProjection(String):String" style="text;strokeColor=none;fillColor=none;align=left;verticalAlign=top;spacingLeft=4;spacingRight=4;overflow=hidden;rotatable=0;points=[[0,0.5],[1,0.5]];portConstraint=eastwest;" vertex="1" parent="o3EUqEFCxauuxiUmKvcj-17">
                    <mxGeometry y="268" width="240" height="26" as="geometry"/>
                </mxCell>
                <mxCell id="o3EUqEFCxauuxiUmKvcj-99" value="modifierNumeroDeReservation(String):String" style="text;strokeColor=none;fillColor=none;align=left;verticalAlign=top;spacingLeft=4;spacingRight=4;overflow=hidden;rotatable=0;points=[[0,0.5],[1,0.5]];portConstraint=eastwest;" vertex="1" parent="o3EUqEFCxauuxiUmKvcj-17">
                    <mxGeometry y="294" width="240" height="26" as="geometry"/>
                </mxCell>
                <mxCell id="o3EUqEFCxauuxiUmKvcj-100" value="modifierCodeDuBillet(String):String" style="text;strokeColor=none;fillColor=none;align=left;verticalAlign=top;spacingLeft=4;spacingRight=4;overflow=hidden;rotatable=0;points=[[0,0.5],[1,0.5]];portConstraint=eastwest;" vertex="1" parent="o3EUqEFCxauuxiUmKvcj-17">
                    <mxGeometry y="320" width="240" height="26" as="geometry"/>
                </mxCell>
                <mxCell id="o3EUqEFCxauuxiUmKvcj-101" value="modifierNomDuClient(String):String" style="text;strokeColor=none;fillColor=none;align=left;verticalAlign=top;spacingLeft=4;spacingRight=4;overflow=hidden;rotatable=0;points=[[0,0.5],[1,0.5]];portConstraint=eastwest;" vertex="1" parent="o3EUqEFCxauuxiUmKvcj-17">
                    <mxGeometry y="346" width="240" height="26" as="geometry"/>
                </mxCell>
                <mxCell id="o3EUqEFCxauuxiUmKvcj-102" value="modifierAge(Number):Number" style="text;strokeColor=none;fillColor=none;align=left;verticalAlign=top;spacingLeft=4;spacingRight=4;overflow=hidden;rotatable=0;points=[[0,0.5],[1,0.5]];portConstraint=eastwest;" vertex="1" parent="o3EUqEFCxauuxiUmKvcj-17">
                    <mxGeometry y="372" width="240" height="26" as="geometry"/>
                </mxCell>
                <mxCell id="o3EUqEFCxauuxiUmKvcj-103" value="modifierTelephone(String):String" style="text;strokeColor=none;fillColor=none;align=left;verticalAlign=top;spacingLeft=4;spacingRight=4;overflow=hidden;rotatable=0;points=[[0,0.5],[1,0.5]];portConstraint=eastwest;" vertex="1" parent="o3EUqEFCxauuxiUmKvcj-17">
                    <mxGeometry y="398" width="240" height="26" as="geometry"/>
                </mxCell>
                <mxCell id="o3EUqEFCxauuxiUmKvcj-104" value="modifierAdresseCourriel(String):String" style="text;strokeColor=none;fillColor=none;align=left;verticalAlign=top;spacingLeft=4;spacingRight=4;overflow=hidden;rotatable=0;points=[[0,0.5],[1,0.5]];portConstraint=eastwest;" vertex="1" parent="o3EUqEFCxauuxiUmKvcj-17">
                    <mxGeometry y="424" width="240" height="26" as="geometry"/>
                </mxCell>
                <mxCell id="o3EUqEFCxauuxiUmKvcj-105" value="modifierCodePostal(String):String" style="text;strokeColor=none;fillColor=none;align=left;verticalAlign=top;spacingLeft=4;spacingRight=4;overflow=hidden;rotatable=0;points=[[0,0.5],[1,0.5]];portConstraint=eastwest;" vertex="1" parent="o3EUqEFCxauuxiUmKvcj-17">
                    <mxGeometry y="450" width="240" height="26" as="geometry"/>
                </mxCell>
                <mxCell id="o3EUqEFCxauuxiUmKvcj-106" value="modifierMontant(Number):Number" style="text;strokeColor=none;fillColor=none;align=left;verticalAlign=top;spacingLeft=4;spacingRight=4;overflow=hidden;rotatable=0;points=[[0,0.5],[1,0.5]];portConstraint=eastwest;" vertex="1" parent="o3EUqEFCxauuxiUmKvcj-17">
                    <mxGeometry y="476" width="240" height="26" as="geometry"/>
                </mxCell>
                <mxCell id="o3EUqEFCxauuxiUmKvcj-107" value="lireProjection():String" style="text;strokeColor=none;fillColor=none;align=left;verticalAlign=top;spacingLeft=4;spacingRight=4;overflow=hidden;rotatable=0;points=[[0,0.5],[1,0.5]];portConstraint=eastwest;" vertex="1" parent="o3EUqEFCxauuxiUmKvcj-17">
                    <mxGeometry y="502" width="240" height="26" as="geometry"/>
                </mxCell>
                <mxCell id="o3EUqEFCxauuxiUmKvcj-108" value="lireNumeroDeReservation():String" style="text;strokeColor=none;fillColor=none;align=left;verticalAlign=top;spacingLeft=4;spacingRight=4;overflow=hidden;rotatable=0;points=[[0,0.5],[1,0.5]];portConstraint=eastwest;" vertex="1" parent="o3EUqEFCxauuxiUmKvcj-17">
                    <mxGeometry y="528" width="240" height="26" as="geometry"/>
                </mxCell>
                <mxCell id="o3EUqEFCxauuxiUmKvcj-112" value="lireCodeDuBillet():String" style="text;strokeColor=none;fillColor=none;align=left;verticalAlign=top;spacingLeft=4;spacingRight=4;overflow=hidden;rotatable=0;points=[[0,0.5],[1,0.5]];portConstraint=eastwest;" vertex="1" parent="o3EUqEFCxauuxiUmKvcj-17">
                    <mxGeometry y="554" width="240" height="26" as="geometry"/>
                </mxCell>
                <mxCell id="o3EUqEFCxauuxiUmKvcj-113" value="lireNomDuClient():String" style="text;strokeColor=none;fillColor=none;align=left;verticalAlign=top;spacingLeft=4;spacingRight=4;overflow=hidden;rotatable=0;points=[[0,0.5],[1,0.5]];portConstraint=eastwest;" vertex="1" parent="o3EUqEFCxauuxiUmKvcj-17">
                    <mxGeometry y="580" width="240" height="26" as="geometry"/>
                </mxCell>
                <mxCell id="o3EUqEFCxauuxiUmKvcj-114" value="lireÄge():Number" style="text;strokeColor=none;fillColor=none;align=left;verticalAlign=top;spacingLeft=4;spacingRight=4;overflow=hidden;rotatable=0;points=[[0,0.5],[1,0.5]];portConstraint=eastwest;" vertex="1" parent="o3EUqEFCxauuxiUmKvcj-17">
                    <mxGeometry y="606" width="240" height="26" as="geometry"/>
                </mxCell>
                <mxCell id="o3EUqEFCxauuxiUmKvcj-115" value="lireTéléphone():String" style="text;strokeColor=none;fillColor=none;align=left;verticalAlign=top;spacingLeft=4;spacingRight=4;overflow=hidden;rotatable=0;points=[[0,0.5],[1,0.5]];portConstraint=eastwest;" vertex="1" parent="o3EUqEFCxauuxiUmKvcj-17">
                    <mxGeometry y="632" width="240" height="26" as="geometry"/>
                </mxCell>
                <mxCell id="o3EUqEFCxauuxiUmKvcj-109" value="lireAdresseCourriel():String" style="text;strokeColor=none;fillColor=none;align=left;verticalAlign=top;spacingLeft=4;spacingRight=4;overflow=hidden;rotatable=0;points=[[0,0.5],[1,0.5]];portConstraint=eastwest;" vertex="1" parent="o3EUqEFCxauuxiUmKvcj-17">
                    <mxGeometry y="658" width="240" height="26" as="geometry"/>
                </mxCell>
                <mxCell id="o3EUqEFCxauuxiUmKvcj-110" value="lireCodePostal():string" style="text;strokeColor=none;fillColor=none;align=left;verticalAlign=top;spacingLeft=4;spacingRight=4;overflow=hidden;rotatable=0;points=[[0,0.5],[1,0.5]];portConstraint=eastwest;" vertex="1" parent="o3EUqEFCxauuxiUmKvcj-17">
                    <mxGeometry y="684" width="240" height="26" as="geometry"/>
                </mxCell>
                <mxCell id="o3EUqEFCxauuxiUmKvcj-111" value="lireMontant():numbre" style="text;strokeColor=none;fillColor=none;align=left;verticalAlign=top;spacingLeft=4;spacingRight=4;overflow=hidden;rotatable=0;points=[[0,0.5],[1,0.5]];portConstraint=eastwest;" vertex="1" parent="o3EUqEFCxauuxiUmKvcj-17">
                    <mxGeometry y="710" width="240" height="26" as="geometry"/>
                </mxCell>
                <mxCell id="o3EUqEFCxauuxiUmKvcj-21" value="Horaire" style="swimlane;fontStyle=1;align=center;verticalAlign=top;childLayout=stackLayout;horizontal=1;startSize=26;horizontalStack=0;resizeParent=1;resizeParentMax=0;resizeLast=0;collapsible=1;marginBottom=0;" vertex="1" parent="1">
                    <mxGeometry x="580" y="1020" width="190" height="346" as="geometry"/>
                </mxCell>
                <mxCell id="i4w1u3LMX8sEiAKsct7O-48" value="heure début: string" style="text;strokeColor=none;fillColor=none;align=left;verticalAlign=top;spacingLeft=4;spacingRight=4;overflow=hidden;rotatable=0;points=[[0,0.5],[1,0.5]];portConstraint=eastwest;" vertex="1" parent="o3EUqEFCxauuxiUmKvcj-21">
                    <mxGeometry y="26" width="190" height="26" as="geometry"/>
                </mxCell>
                <mxCell id="i4w1u3LMX8sEiAKsct7O-47" value="code: string" style="text;strokeColor=none;fillColor=none;align=left;verticalAlign=top;spacingLeft=4;spacingRight=4;overflow=hidden;rotatable=0;points=[[0,0.5],[1,0.5]];portConstraint=eastwest;" vertex="1" parent="o3EUqEFCxauuxiUmKvcj-21">
                    <mxGeometry y="52" width="190" height="26" as="geometry"/>
                </mxCell>
                <mxCell id="i4w1u3LMX8sEiAKsct7O-46" value="facteur tarif: number" style="text;strokeColor=none;fillColor=none;align=left;verticalAlign=top;spacingLeft=4;spacingRight=4;overflow=hidden;rotatable=0;points=[[0,0.5],[1,0.5]];portConstraint=eastwest;" vertex="1" parent="o3EUqEFCxauuxiUmKvcj-21">
                    <mxGeometry y="78" width="190" height="26" as="geometry"/>
                </mxCell>
                <mxCell id="o3EUqEFCxauuxiUmKvcj-22" value="heure fin: string" style="text;strokeColor=none;fillColor=none;align=left;verticalAlign=top;spacingLeft=4;spacingRight=4;overflow=hidden;rotatable=0;points=[[0,0.5],[1,0.5]];portConstraint=eastwest;" vertex="1" parent="o3EUqEFCxauuxiUmKvcj-21">
                    <mxGeometry y="104" width="190" height="26" as="geometry"/>
                </mxCell>
                <mxCell id="o3EUqEFCxauuxiUmKvcj-23" value="" style="line;strokeWidth=1;fillColor=none;align=left;verticalAlign=middle;spacingTop=-1;spacingLeft=3;spacingRight=3;rotatable=0;labelPosition=right;points=[];portConstraint=eastwest;" vertex="1" parent="o3EUqEFCxauuxiUmKvcj-21">
                    <mxGeometry y="130" width="190" height="8" as="geometry"/>
                </mxCell>
                <mxCell id="o3EUqEFCxauuxiUmKvcj-144" value="modifierHeureDébut:string" style="text;strokeColor=none;fillColor=none;align=left;verticalAlign=top;spacingLeft=4;spacingRight=4;overflow=hidden;rotatable=0;points=[[0,0.5],[1,0.5]];portConstraint=eastwest;" vertex="1" parent="o3EUqEFCxauuxiUmKvcj-21">
                    <mxGeometry y="138" width="190" height="26" as="geometry"/>
                </mxCell>
                <mxCell id="o3EUqEFCxauuxiUmKvcj-145" value="modifierCode(string):string" style="text;strokeColor=none;fillColor=none;align=left;verticalAlign=top;spacingLeft=4;spacingRight=4;overflow=hidden;rotatable=0;points=[[0,0.5],[1,0.5]];portConstraint=eastwest;" vertex="1" parent="o3EUqEFCxauuxiUmKvcj-21">
                    <mxGeometry y="164" width="190" height="26" as="geometry"/>
                </mxCell>
                <mxCell id="o3EUqEFCxauuxiUmKvcj-146" value="modifierFacteurTarif(string):string" style="text;strokeColor=none;fillColor=none;align=left;verticalAlign=top;spacingLeft=4;spacingRight=4;overflow=hidden;rotatable=0;points=[[0,0.5],[1,0.5]];portConstraint=eastwest;" vertex="1" parent="o3EUqEFCxauuxiUmKvcj-21">
                    <mxGeometry y="190" width="190" height="26" as="geometry"/>
                </mxCell>
                <mxCell id="o3EUqEFCxauuxiUmKvcj-147" value="modifierHeureFin(string):string" style="text;strokeColor=none;fillColor=none;align=left;verticalAlign=top;spacingLeft=4;spacingRight=4;overflow=hidden;rotatable=0;points=[[0,0.5],[1,0.5]];portConstraint=eastwest;" vertex="1" parent="o3EUqEFCxauuxiUmKvcj-21">
                    <mxGeometry y="216" width="190" height="26" as="geometry"/>
                </mxCell>
                <mxCell id="o3EUqEFCxauuxiUmKvcj-148" value="lireHeureDébut():string" style="text;strokeColor=none;fillColor=none;align=left;verticalAlign=top;spacingLeft=4;spacingRight=4;overflow=hidden;rotatable=0;points=[[0,0.5],[1,0.5]];portConstraint=eastwest;" vertex="1" parent="o3EUqEFCxauuxiUmKvcj-21">
                    <mxGeometry y="242" width="190" height="26" as="geometry"/>
                </mxCell>
                <mxCell id="o3EUqEFCxauuxiUmKvcj-149" value="lireCode():string" style="text;strokeColor=none;fillColor=none;align=left;verticalAlign=top;spacingLeft=4;spacingRight=4;overflow=hidden;rotatable=0;points=[[0,0.5],[1,0.5]];portConstraint=eastwest;" vertex="1" parent="o3EUqEFCxauuxiUmKvcj-21">
                    <mxGeometry y="268" width="190" height="26" as="geometry"/>
                </mxCell>
                <mxCell id="o3EUqEFCxauuxiUmKvcj-150" value="lireFacteurTarif(): number" style="text;strokeColor=none;fillColor=none;align=left;verticalAlign=top;spacingLeft=4;spacingRight=4;overflow=hidden;rotatable=0;points=[[0,0.5],[1,0.5]];portConstraint=eastwest;" vertex="1" parent="o3EUqEFCxauuxiUmKvcj-21">
                    <mxGeometry y="294" width="190" height="26" as="geometry"/>
                </mxCell>
                <mxCell id="o3EUqEFCxauuxiUmKvcj-143" value="lireHeureFin(): string" style="text;strokeColor=none;fillColor=none;align=left;verticalAlign=top;spacingLeft=4;spacingRight=4;overflow=hidden;rotatable=0;points=[[0,0.5],[1,0.5]];portConstraint=eastwest;" vertex="1" parent="o3EUqEFCxauuxiUmKvcj-21">
                    <mxGeometry y="320" width="190" height="26" as="geometry"/>
                </mxCell>
                <mxCell id="o3EUqEFCxauuxiUmKvcj-25" value="Projection" style="swimlane;fontStyle=1;align=center;verticalAlign=top;childLayout=stackLayout;horizontal=1;startSize=26;horizontalStack=0;resizeParent=1;resizeParentMax=0;resizeLast=0;collapsible=1;marginBottom=0;" vertex="1" parent="1">
                    <mxGeometry x="390" y="440" width="180" height="424" as="geometry"/>
                </mxCell>
                <mxCell id="i4w1u3LMX8sEiAKsct7O-36" value="+ salle: objet" style="text;strokeColor=none;fillColor=none;align=left;verticalAlign=top;spacingLeft=4;spacingRight=4;overflow=hidden;rotatable=0;points=[[0,0.5],[1,0.5]];portConstraint=eastwest;" vertex="1" parent="o3EUqEFCxauuxiUmKvcj-25">
                    <mxGeometry y="26" width="180" height="26" as="geometry"/>
                </mxCell>
                <mxCell id="i4w1u3LMX8sEiAKsct7O-37" value="+ date: string" style="text;strokeColor=none;fillColor=none;align=left;verticalAlign=top;spacingLeft=4;spacingRight=4;overflow=hidden;rotatable=0;points=[[0,0.5],[1,0.5]];portConstraint=eastwest;" vertex="1" parent="o3EUqEFCxauuxiUmKvcj-25">
                    <mxGeometry y="52" width="180" height="26" as="geometry"/>
                </mxCell>
                <mxCell id="o3EUqEFCxauuxiUmKvcj-26" value="+ film: objet" style="text;strokeColor=none;fillColor=none;align=left;verticalAlign=top;spacingLeft=4;spacingRight=4;overflow=hidden;rotatable=0;points=[[0,0.5],[1,0.5]];portConstraint=eastwest;" vertex="1" parent="o3EUqEFCxauuxiUmKvcj-25">
                    <mxGeometry y="78" width="180" height="26" as="geometry"/>
                </mxCell>
                <mxCell id="i4w1u3LMX8sEiAKsct7O-39" value="+ tarif: number" style="text;strokeColor=none;fillColor=none;align=left;verticalAlign=top;spacingLeft=4;spacingRight=4;overflow=hidden;rotatable=0;points=[[0,0.5],[1,0.5]];portConstraint=eastwest;" vertex="1" parent="o3EUqEFCxauuxiUmKvcj-25">
                    <mxGeometry y="104" width="180" height="26" as="geometry"/>
                </mxCell>
                <mxCell id="i4w1u3LMX8sEiAKsct7O-38" value="+ horaire: objet" style="text;strokeColor=none;fillColor=none;align=left;verticalAlign=top;spacingLeft=4;spacingRight=4;overflow=hidden;rotatable=0;points=[[0,0.5],[1,0.5]];portConstraint=eastwest;" vertex="1" parent="o3EUqEFCxauuxiUmKvcj-25">
                    <mxGeometry y="130" width="180" height="26" as="geometry"/>
                </mxCell>
                <mxCell id="o3EUqEFCxauuxiUmKvcj-27" value="" style="line;strokeWidth=1;fillColor=none;align=left;verticalAlign=middle;spacingTop=-1;spacingLeft=3;spacingRight=3;rotatable=0;labelPosition=right;points=[];portConstraint=eastwest;" vertex="1" parent="o3EUqEFCxauuxiUmKvcj-25">
                    <mxGeometry y="156" width="180" height="8" as="geometry"/>
                </mxCell>
                <mxCell id="o3EUqEFCxauuxiUmKvcj-28" value="modifierSalle(objet): objet" style="text;strokeColor=none;fillColor=none;align=left;verticalAlign=top;spacingLeft=4;spacingRight=4;overflow=hidden;rotatable=0;points=[[0,0.5],[1,0.5]];portConstraint=eastwest;" vertex="1" parent="o3EUqEFCxauuxiUmKvcj-25">
                    <mxGeometry y="164" width="180" height="26" as="geometry"/>
                </mxCell>
                <mxCell id="o3EUqEFCxauuxiUmKvcj-125" value="modifierDate(string): string" style="text;strokeColor=none;fillColor=none;align=left;verticalAlign=top;spacingLeft=4;spacingRight=4;overflow=hidden;rotatable=0;points=[[0,0.5],[1,0.5]];portConstraint=eastwest;" vertex="1" parent="o3EUqEFCxauuxiUmKvcj-25">
                    <mxGeometry y="190" width="180" height="26" as="geometry"/>
                </mxCell>
                <mxCell id="o3EUqEFCxauuxiUmKvcj-126" value="modiferFilm(objet): objet" style="text;strokeColor=none;fillColor=none;align=left;verticalAlign=top;spacingLeft=4;spacingRight=4;overflow=hidden;rotatable=0;points=[[0,0.5],[1,0.5]];portConstraint=eastwest;" vertex="1" parent="o3EUqEFCxauuxiUmKvcj-25">
                    <mxGeometry y="216" width="180" height="26" as="geometry"/>
                </mxCell>
                <mxCell id="o3EUqEFCxauuxiUmKvcj-127" value="modifierTarif(number): number " style="text;strokeColor=none;fillColor=none;align=left;verticalAlign=top;spacingLeft=4;spacingRight=4;overflow=hidden;rotatable=0;points=[[0,0.5],[1,0.5]];portConstraint=eastwest;" vertex="1" parent="o3EUqEFCxauuxiUmKvcj-25">
                    <mxGeometry y="242" width="180" height="26" as="geometry"/>
                </mxCell>
                <mxCell id="o3EUqEFCxauuxiUmKvcj-128" value="modifierHoraire(objet): objet" style="text;strokeColor=none;fillColor=none;align=left;verticalAlign=top;spacingLeft=4;spacingRight=4;overflow=hidden;rotatable=0;points=[[0,0.5],[1,0.5]];portConstraint=eastwest;" vertex="1" parent="o3EUqEFCxauuxiUmKvcj-25">
                    <mxGeometry y="268" width="180" height="26" as="geometry"/>
                </mxCell>
                <mxCell id="o3EUqEFCxauuxiUmKvcj-129" value="lireSalle():objet" style="text;strokeColor=none;fillColor=none;align=left;verticalAlign=top;spacingLeft=4;spacingRight=4;overflow=hidden;rotatable=0;points=[[0,0.5],[1,0.5]];portConstraint=eastwest;" vertex="1" parent="o3EUqEFCxauuxiUmKvcj-25">
                    <mxGeometry y="294" width="180" height="26" as="geometry"/>
                </mxCell>
                <mxCell id="o3EUqEFCxauuxiUmKvcj-130" value="lireDate():string" style="text;strokeColor=none;fillColor=none;align=left;verticalAlign=top;spacingLeft=4;spacingRight=4;overflow=hidden;rotatable=0;points=[[0,0.5],[1,0.5]];portConstraint=eastwest;" vertex="1" parent="o3EUqEFCxauuxiUmKvcj-25">
                    <mxGeometry y="320" width="180" height="26" as="geometry"/>
                </mxCell>
                <mxCell id="o3EUqEFCxauuxiUmKvcj-131" value="lireFilm():objet" style="text;strokeColor=none;fillColor=none;align=left;verticalAlign=top;spacingLeft=4;spacingRight=4;overflow=hidden;rotatable=0;points=[[0,0.5],[1,0.5]];portConstraint=eastwest;" vertex="1" parent="o3EUqEFCxauuxiUmKvcj-25">
                    <mxGeometry y="346" width="180" height="26" as="geometry"/>
                </mxCell>
                <mxCell id="o3EUqEFCxauuxiUmKvcj-132" value="lireTarif():number" style="text;strokeColor=none;fillColor=none;align=left;verticalAlign=top;spacingLeft=4;spacingRight=4;overflow=hidden;rotatable=0;points=[[0,0.5],[1,0.5]];portConstraint=eastwest;" vertex="1" parent="o3EUqEFCxauuxiUmKvcj-25">
                    <mxGeometry y="372" width="180" height="26" as="geometry"/>
                </mxCell>
                <mxCell id="o3EUqEFCxauuxiUmKvcj-133" value="horaire():objet" style="text;strokeColor=none;fillColor=none;align=left;verticalAlign=top;spacingLeft=4;spacingRight=4;overflow=hidden;rotatable=0;points=[[0,0.5],[1,0.5]];portConstraint=eastwest;" vertex="1" parent="o3EUqEFCxauuxiUmKvcj-25">
                    <mxGeometry y="398" width="180" height="26" as="geometry"/>
                </mxCell>
                <mxCell id="o3EUqEFCxauuxiUmKvcj-29" value="" style="endArrow=diamondThin;endFill=1;endSize=24;html=1;exitX=0;exitY=0.5;exitDx=0;exitDy=0;" edge="1" parent="1" source="o3EUqEFCxauuxiUmKvcj-121" target="o3EUqEFCxauuxiUmKvcj-45">
                    <mxGeometry width="160" relative="1" as="geometry">
                        <mxPoint x="270" y="410" as="sourcePoint"/>
                        <mxPoint x="320.0000000000002" y="450" as="targetPoint"/>
                    </mxGeometry>
                </mxCell>
                <mxCell id="o3EUqEFCxauuxiUmKvcj-31" value="" style="endArrow=diamondThin;endFill=1;endSize=24;html=1;entryX=0.043;entryY=0.051;entryDx=0;entryDy=0;exitX=1;exitY=0.5;exitDx=0;exitDy=0;entryPerimeter=0;" edge="1" parent="1" source="o3EUqEFCxauuxiUmKvcj-48" target="i4w1u3LMX8sEiAKsct7O-38">
                    <mxGeometry width="160" relative="1" as="geometry">
                        <mxPoint x="410.72" y="711.404" as="sourcePoint"/>
                        <mxPoint x="570" y="380" as="targetPoint"/>
                    </mxGeometry>
                </mxCell>
                <mxCell id="o3EUqEFCxauuxiUmKvcj-32" value="" style="endArrow=diamondThin;endFill=1;endSize=24;html=1;entryX=0.25;entryY=0;entryDx=0;entryDy=0;" edge="1" parent="1" target="o3EUqEFCxauuxiUmKvcj-45">
                    <mxGeometry width="160" relative="1" as="geometry">
                        <mxPoint x="-112" y="220" as="sourcePoint"/>
                        <mxPoint x="139.9999999999999" y="450" as="targetPoint"/>
                        <Array as="points"/>
                    </mxGeometry>
                </mxCell>
                <mxCell id="o3EUqEFCxauuxiUmKvcj-35" value="" style="endArrow=diamondThin;endFill=1;endSize=24;html=1;exitX=0.5;exitY=0;exitDx=0;exitDy=0;entryX=0;entryY=0.5;entryDx=0;entryDy=0;" edge="1" parent="1" source="o3EUqEFCxauuxiUmKvcj-37" target="o3EUqEFCxauuxiUmKvcj-131">
                    <mxGeometry width="160" relative="1" as="geometry">
                        <mxPoint x="190" y="875" as="sourcePoint"/>
                        <mxPoint x="510" y="700" as="targetPoint"/>
                        <Array as="points"/>
                    </mxGeometry>
                </mxCell>
                <mxCell id="o3EUqEFCxauuxiUmKvcj-34" value="" style="endArrow=diamondThin;endFill=1;endSize=24;html=1;exitX=0.75;exitY=0;exitDx=0;exitDy=0;entryX=1;entryY=0.5;entryDx=0;entryDy=0;" edge="1" parent="1" source="o3EUqEFCxauuxiUmKvcj-21" target="o3EUqEFCxauuxiUmKvcj-131">
                    <mxGeometry width="160" relative="1" as="geometry">
                        <mxPoint x="344" y="822.5" as="sourcePoint"/>
                        <mxPoint x="504" y="822.5" as="targetPoint"/>
                        <Array as="points"/>
                    </mxGeometry>
                </mxCell>
                <mxCell id="o3EUqEFCxauuxiUmKvcj-37" value="Salle" style="swimlane;fontStyle=1;align=center;verticalAlign=top;childLayout=stackLayout;horizontal=1;startSize=26;horizontalStack=0;resizeParent=1;resizeParentMax=0;resizeLast=0;collapsible=1;marginBottom=0;" vertex="1" parent="1">
                    <mxGeometry x="260" y="1020" width="260" height="424" as="geometry"/>
                </mxCell>
                <mxCell id="i4w1u3LMX8sEiAKsct7O-42" value="nom: string" style="text;strokeColor=none;fillColor=none;align=left;verticalAlign=top;spacingLeft=4;spacingRight=4;overflow=hidden;rotatable=0;points=[[0,0.5],[1,0.5]];portConstraint=eastwest;" vertex="1" parent="o3EUqEFCxauuxiUmKvcj-37">
                    <mxGeometry y="26" width="260" height="26" as="geometry"/>
                </mxCell>
                <mxCell id="i4w1u3LMX8sEiAKsct7O-43" value="type: string" style="text;strokeColor=none;fillColor=none;align=left;verticalAlign=top;spacingLeft=4;spacingRight=4;overflow=hidden;rotatable=0;points=[[0,0.5],[1,0.5]];portConstraint=eastwest;" vertex="1" parent="o3EUqEFCxauuxiUmKvcj-37">
                    <mxGeometry y="52" width="260" height="26" as="geometry"/>
                </mxCell>
                <mxCell id="i4w1u3LMX8sEiAKsct7O-44" value="facteur tarif.: number" style="text;strokeColor=none;fillColor=none;align=left;verticalAlign=top;spacingLeft=4;spacingRight=4;overflow=hidden;rotatable=0;points=[[0,0.5],[1,0.5]];portConstraint=eastwest;" vertex="1" parent="o3EUqEFCxauuxiUmKvcj-37">
                    <mxGeometry y="78" width="260" height="26" as="geometry"/>
                </mxCell>
                <mxCell id="i4w1u3LMX8sEiAKsct7O-41" value="capacité: number" style="text;strokeColor=none;fillColor=none;align=left;verticalAlign=top;spacingLeft=4;spacingRight=4;overflow=hidden;rotatable=0;points=[[0,0.5],[1,0.5]];portConstraint=eastwest;" vertex="1" parent="o3EUqEFCxauuxiUmKvcj-37">
                    <mxGeometry y="104" width="260" height="26" as="geometry"/>
                </mxCell>
                <mxCell id="o3EUqEFCxauuxiUmKvcj-38" value="code: string&#10;" style="text;strokeColor=none;fillColor=none;align=left;verticalAlign=top;spacingLeft=4;spacingRight=4;overflow=hidden;rotatable=0;points=[[0,0.5],[1,0.5]];portConstraint=eastwest;" vertex="1" parent="o3EUqEFCxauuxiUmKvcj-37">
                    <mxGeometry y="130" width="260" height="26" as="geometry"/>
                </mxCell>
                <mxCell id="o3EUqEFCxauuxiUmKvcj-39" value="" style="line;strokeWidth=1;fillColor=none;align=left;verticalAlign=middle;spacingTop=-1;spacingLeft=3;spacingRight=3;rotatable=0;labelPosition=right;points=[];portConstraint=eastwest;" vertex="1" parent="o3EUqEFCxauuxiUmKvcj-37">
                    <mxGeometry y="156" width="260" height="8" as="geometry"/>
                </mxCell>
                <mxCell id="o3EUqEFCxauuxiUmKvcj-40" value="modifierNom(string): string" style="text;strokeColor=none;fillColor=none;align=left;verticalAlign=top;spacingLeft=4;spacingRight=4;overflow=hidden;rotatable=0;points=[[0,0.5],[1,0.5]];portConstraint=eastwest;" vertex="1" parent="o3EUqEFCxauuxiUmKvcj-37">
                    <mxGeometry y="164" width="260" height="26" as="geometry"/>
                </mxCell>
                <mxCell id="o3EUqEFCxauuxiUmKvcj-134" value="modifierType(string): string" style="text;strokeColor=none;fillColor=none;align=left;verticalAlign=top;spacingLeft=4;spacingRight=4;overflow=hidden;rotatable=0;points=[[0,0.5],[1,0.5]];portConstraint=eastwest;" vertex="1" parent="o3EUqEFCxauuxiUmKvcj-37">
                    <mxGeometry y="190" width="260" height="26" as="geometry"/>
                </mxCell>
                <mxCell id="o3EUqEFCxauuxiUmKvcj-135" value="modifierFacteurTarif(number): number" style="text;strokeColor=none;fillColor=none;align=left;verticalAlign=top;spacingLeft=4;spacingRight=4;overflow=hidden;rotatable=0;points=[[0,0.5],[1,0.5]];portConstraint=eastwest;" vertex="1" parent="o3EUqEFCxauuxiUmKvcj-37">
                    <mxGeometry y="216" width="260" height="26" as="geometry"/>
                </mxCell>
                <mxCell id="o3EUqEFCxauuxiUmKvcj-136" value="modifierCapacité(number): number" style="text;strokeColor=none;fillColor=none;align=left;verticalAlign=top;spacingLeft=4;spacingRight=4;overflow=hidden;rotatable=0;points=[[0,0.5],[1,0.5]];portConstraint=eastwest;" vertex="1" parent="o3EUqEFCxauuxiUmKvcj-37">
                    <mxGeometry y="242" width="260" height="26" as="geometry"/>
                </mxCell>
                <mxCell id="o3EUqEFCxauuxiUmKvcj-137" value="modifierCode(string): string" style="text;strokeColor=none;fillColor=none;align=left;verticalAlign=top;spacingLeft=4;spacingRight=4;overflow=hidden;rotatable=0;points=[[0,0.5],[1,0.5]];portConstraint=eastwest;" vertex="1" parent="o3EUqEFCxauuxiUmKvcj-37">
                    <mxGeometry y="268" width="260" height="26" as="geometry"/>
                </mxCell>
                <mxCell id="o3EUqEFCxauuxiUmKvcj-138" value="lireNom(): string" style="text;strokeColor=none;fillColor=none;align=left;verticalAlign=top;spacingLeft=4;spacingRight=4;overflow=hidden;rotatable=0;points=[[0,0.5],[1,0.5]];portConstraint=eastwest;" vertex="1" parent="o3EUqEFCxauuxiUmKvcj-37">
                    <mxGeometry y="294" width="260" height="26" as="geometry"/>
                </mxCell>
                <mxCell id="o3EUqEFCxauuxiUmKvcj-139" value="liretype(): string" style="text;strokeColor=none;fillColor=none;align=left;verticalAlign=top;spacingLeft=4;spacingRight=4;overflow=hidden;rotatable=0;points=[[0,0.5],[1,0.5]];portConstraint=eastwest;" vertex="1" parent="o3EUqEFCxauuxiUmKvcj-37">
                    <mxGeometry y="320" width="260" height="26" as="geometry"/>
                </mxCell>
                <mxCell id="o3EUqEFCxauuxiUmKvcj-140" value="lireFacteurTarif(): number" style="text;strokeColor=none;fillColor=none;align=left;verticalAlign=top;spacingLeft=4;spacingRight=4;overflow=hidden;rotatable=0;points=[[0,0.5],[1,0.5]];portConstraint=eastwest;" vertex="1" parent="o3EUqEFCxauuxiUmKvcj-37">
                    <mxGeometry y="346" width="260" height="26" as="geometry"/>
                </mxCell>
                <mxCell id="o3EUqEFCxauuxiUmKvcj-141" value="lireCapacité(): number" style="text;strokeColor=none;fillColor=none;align=left;verticalAlign=top;spacingLeft=4;spacingRight=4;overflow=hidden;rotatable=0;points=[[0,0.5],[1,0.5]];portConstraint=eastwest;" vertex="1" parent="o3EUqEFCxauuxiUmKvcj-37">
                    <mxGeometry y="372" width="260" height="26" as="geometry"/>
                </mxCell>
                <mxCell id="o3EUqEFCxauuxiUmKvcj-142" value="lireCode(): string" style="text;strokeColor=none;fillColor=none;align=left;verticalAlign=top;spacingLeft=4;spacingRight=4;overflow=hidden;rotatable=0;points=[[0,0.5],[1,0.5]];portConstraint=eastwest;" vertex="1" parent="o3EUqEFCxauuxiUmKvcj-37">
                    <mxGeometry y="398" width="260" height="26" as="geometry"/>
                </mxCell>
                <mxCell id="o3EUqEFCxauuxiUmKvcj-41" value="Artiste" style="swimlane;fontStyle=1;align=center;verticalAlign=top;childLayout=stackLayout;horizontal=1;startSize=26;horizontalStack=0;resizeParent=1;resizeParentMax=0;resizeLast=0;collapsible=1;marginBottom=0;" vertex="1" parent="1">
                    <mxGeometry x="-130" y="-280" width="190" height="268" as="geometry"/>
                </mxCell>
                <mxCell id="o3EUqEFCxauuxiUmKvcj-51" value="nom: String" style="text;strokeColor=none;fillColor=none;align=left;verticalAlign=top;spacingLeft=4;spacingRight=4;overflow=hidden;rotatable=0;points=[[0,0.5],[1,0.5]];portConstraint=eastwest;" vertex="1" parent="o3EUqEFCxauuxiUmKvcj-41">
                    <mxGeometry y="26" width="190" height="26" as="geometry"/>
                </mxCell>
                <mxCell id="o3EUqEFCxauuxiUmKvcj-50" value="prénom: String" style="text;strokeColor=none;fillColor=none;align=left;verticalAlign=top;spacingLeft=4;spacingRight=4;overflow=hidden;rotatable=0;points=[[0,0.5],[1,0.5]];portConstraint=eastwest;" vertex="1" parent="o3EUqEFCxauuxiUmKvcj-41">
                    <mxGeometry y="52" width="190" height="26" as="geometry"/>
                </mxCell>
                <mxCell id="o3EUqEFCxauuxiUmKvcj-42" value="nationalité:String" style="text;strokeColor=none;fillColor=none;align=left;verticalAlign=top;spacingLeft=4;spacingRight=4;overflow=hidden;rotatable=0;points=[[0,0.5],[1,0.5]];portConstraint=eastwest;" vertex="1" parent="o3EUqEFCxauuxiUmKvcj-41">
                    <mxGeometry y="78" width="190" height="26" as="geometry"/>
                </mxCell>
                <mxCell id="o3EUqEFCxauuxiUmKvcj-43" value="" style="line;strokeWidth=1;fillColor=none;align=left;verticalAlign=middle;spacingTop=-1;spacingLeft=3;spacingRight=3;rotatable=0;labelPosition=right;points=[];portConstraint=eastwest;" vertex="1" parent="o3EUqEFCxauuxiUmKvcj-41">
                    <mxGeometry y="104" width="190" height="8" as="geometry"/>
                </mxCell>
                <mxCell id="o3EUqEFCxauuxiUmKvcj-56" value="modifierNom(string):string" style="text;strokeColor=none;fillColor=none;align=left;verticalAlign=top;spacingLeft=4;spacingRight=4;overflow=hidden;rotatable=0;points=[[0,0.5],[1,0.5]];portConstraint=eastwest;" vertex="1" parent="o3EUqEFCxauuxiUmKvcj-41">
                    <mxGeometry y="112" width="190" height="26" as="geometry"/>
                </mxCell>
                <mxCell id="o3EUqEFCxauuxiUmKvcj-55" value="modifierPrenom(string):string" style="text;strokeColor=none;fillColor=none;align=left;verticalAlign=top;spacingLeft=4;spacingRight=4;overflow=hidden;rotatable=0;points=[[0,0.5],[1,0.5]];portConstraint=eastwest;" vertex="1" parent="o3EUqEFCxauuxiUmKvcj-41">
                    <mxGeometry y="138" width="190" height="26" as="geometry"/>
                </mxCell>
                <mxCell id="o3EUqEFCxauuxiUmKvcj-54" value="modifierNationalite(string):string" style="text;strokeColor=none;fillColor=none;align=left;verticalAlign=top;spacingLeft=4;spacingRight=4;overflow=hidden;rotatable=0;points=[[0,0.5],[1,0.5]];portConstraint=eastwest;" vertex="1" parent="o3EUqEFCxauuxiUmKvcj-41">
                    <mxGeometry y="164" width="190" height="26" as="geometry"/>
                </mxCell>
                <mxCell id="o3EUqEFCxauuxiUmKvcj-57" value="lireNom():String" style="text;strokeColor=none;fillColor=none;align=left;verticalAlign=top;spacingLeft=4;spacingRight=4;overflow=hidden;rotatable=0;points=[[0,0.5],[1,0.5]];portConstraint=eastwest;" vertex="1" parent="o3EUqEFCxauuxiUmKvcj-41">
                    <mxGeometry y="190" width="190" height="26" as="geometry"/>
                </mxCell>
                <mxCell id="o3EUqEFCxauuxiUmKvcj-52" value="lirePrenom():String" style="text;strokeColor=none;fillColor=none;align=left;verticalAlign=top;spacingLeft=4;spacingRight=4;overflow=hidden;rotatable=0;points=[[0,0.5],[1,0.5]];portConstraint=eastwest;" vertex="1" parent="o3EUqEFCxauuxiUmKvcj-41">
                    <mxGeometry y="216" width="190" height="26" as="geometry"/>
                </mxCell>
                <mxCell id="o3EUqEFCxauuxiUmKvcj-44" value="lireNationalite():String" style="text;strokeColor=none;fillColor=none;align=left;verticalAlign=top;spacingLeft=4;spacingRight=4;overflow=hidden;rotatable=0;points=[[0,0.5],[1,0.5]];portConstraint=eastwest;" vertex="1" parent="o3EUqEFCxauuxiUmKvcj-41">
                    <mxGeometry y="242" width="190" height="26" as="geometry"/>
                </mxCell>
                <mxCell id="o3EUqEFCxauuxiUmKvcj-45" value="Film" style="swimlane;fontStyle=1;align=center;verticalAlign=top;childLayout=stackLayout;horizontal=1;startSize=26;horizontalStack=0;resizeParent=1;resizeParentMax=0;resizeLast=0;collapsible=1;marginBottom=0;" vertex="1" parent="1">
                    <mxGeometry x="-240" y="430" width="470" height="892" as="geometry"/>
                </mxCell>
                <mxCell id="o3EUqEFCxauuxiUmKvcj-46" value="titre: string" style="text;strokeColor=none;fillColor=none;align=left;verticalAlign=top;spacingLeft=4;spacingRight=4;overflow=hidden;rotatable=0;points=[[0,0.5],[1,0.5]];portConstraint=eastwest;" vertex="1" parent="o3EUqEFCxauuxiUmKvcj-45">
                    <mxGeometry y="26" width="470" height="26" as="geometry"/>
                </mxCell>
                <mxCell id="i4w1u3LMX8sEiAKsct7O-32" value="code: string" style="text;strokeColor=none;fillColor=none;align=left;verticalAlign=top;spacingLeft=4;spacingRight=4;overflow=hidden;rotatable=0;points=[[0,0.5],[1,0.5]];portConstraint=eastwest;" vertex="1" parent="o3EUqEFCxauuxiUmKvcj-45">
                    <mxGeometry y="52" width="470" height="26" as="geometry"/>
                </mxCell>
                <mxCell id="i4w1u3LMX8sEiAKsct7O-31" value="duration: number" style="text;strokeColor=none;fillColor=none;align=left;verticalAlign=top;spacingLeft=4;spacingRight=4;overflow=hidden;rotatable=0;points=[[0,0.5],[1,0.5]];portConstraint=eastwest;" vertex="1" parent="o3EUqEFCxauuxiUmKvcj-45">
                    <mxGeometry y="78" width="470" height="26" as="geometry"/>
                </mxCell>
                <mxCell id="i4w1u3LMX8sEiAKsct7O-29" value="genre: string" style="text;strokeColor=none;fillColor=none;align=left;verticalAlign=top;spacingLeft=4;spacingRight=4;overflow=hidden;rotatable=0;points=[[0,0.5],[1,0.5]];portConstraint=eastwest;" vertex="1" parent="o3EUqEFCxauuxiUmKvcj-45">
                    <mxGeometry y="104" width="470" height="26" as="geometry"/>
                </mxCell>
                <mxCell id="o3EUqEFCxauuxiUmKvcj-49" value="catégorie: string" style="text;strokeColor=none;fillColor=none;align=left;verticalAlign=top;spacingLeft=4;spacingRight=4;overflow=hidden;rotatable=0;points=[[0,0.5],[1,0.5]];portConstraint=eastwest;" vertex="1" parent="o3EUqEFCxauuxiUmKvcj-45">
                    <mxGeometry y="130" width="470" height="26" as="geometry"/>
                </mxCell>
                <mxCell id="i4w1u3LMX8sEiAKsct7O-28" value="pays: string" style="text;strokeColor=none;fillColor=none;align=left;verticalAlign=top;spacingLeft=4;spacingRight=4;overflow=hidden;rotatable=0;points=[[0,0.5],[1,0.5]];portConstraint=eastwest;" vertex="1" parent="o3EUqEFCxauuxiUmKvcj-45">
                    <mxGeometry y="156" width="470" height="26" as="geometry"/>
                </mxCell>
                <mxCell id="i4w1u3LMX8sEiAKsct7O-33" value="année: number" style="text;strokeColor=none;fillColor=none;align=left;verticalAlign=top;spacingLeft=4;spacingRight=4;overflow=hidden;rotatable=0;points=[[0,0.5],[1,0.5]];portConstraint=eastwest;" vertex="1" parent="o3EUqEFCxauuxiUmKvcj-45">
                    <mxGeometry y="182" width="470" height="26" as="geometry"/>
                </mxCell>
                <mxCell id="i4w1u3LMX8sEiAKsct7O-35" value="acteurs: string" style="text;strokeColor=none;fillColor=none;align=left;verticalAlign=top;spacingLeft=4;spacingRight=4;overflow=hidden;rotatable=0;points=[[0,0.5],[1,0.5]];portConstraint=eastwest;" vertex="1" parent="o3EUqEFCxauuxiUmKvcj-45">
                    <mxGeometry y="208" width="470" height="26" as="geometry"/>
                </mxCell>
                <mxCell id="i4w1u3LMX8sEiAKsct7O-34" value="producteur: string" style="text;strokeColor=none;fillColor=none;align=left;verticalAlign=top;spacingLeft=4;spacingRight=4;overflow=hidden;rotatable=0;points=[[0,0.5],[1,0.5]];portConstraint=eastwest;" vertex="1" parent="o3EUqEFCxauuxiUmKvcj-45">
                    <mxGeometry y="234" width="470" height="26" as="geometry"/>
                </mxCell>
                <mxCell id="i4w1u3LMX8sEiAKsct7O-27" value="date de sortie: string" style="text;strokeColor=none;fillColor=none;align=left;verticalAlign=top;spacingLeft=4;spacingRight=4;overflow=hidden;rotatable=0;points=[[0,0.5],[1,0.5]];portConstraint=eastwest;" vertex="1" parent="o3EUqEFCxauuxiUmKvcj-45">
                    <mxGeometry y="260" width="470" height="26" as="geometry"/>
                </mxCell>
                <mxCell id="i4w1u3LMX8sEiAKsct7O-30" value="résumé: string" style="text;strokeColor=none;fillColor=none;align=left;verticalAlign=top;spacingLeft=4;spacingRight=4;overflow=hidden;rotatable=0;points=[[0,0.5],[1,0.5]];portConstraint=eastwest;" vertex="1" parent="o3EUqEFCxauuxiUmKvcj-45">
                    <mxGeometry y="286" width="470" height="26" as="geometry"/>
                </mxCell>
                <mxCell id="o3EUqEFCxauuxiUmKvcj-47" value="" style="line;strokeWidth=1;fillColor=none;align=left;verticalAlign=middle;spacingTop=-1;spacingLeft=3;spacingRight=3;rotatable=0;labelPosition=right;points=[];portConstraint=eastwest;" vertex="1" parent="o3EUqEFCxauuxiUmKvcj-45">
                    <mxGeometry y="312" width="470" height="8" as="geometry"/>
                </mxCell>
                <mxCell id="o3EUqEFCxauuxiUmKvcj-48" value="modifierTitre(String):String" style="text;strokeColor=none;fillColor=none;align=left;verticalAlign=top;spacingLeft=4;spacingRight=4;overflow=hidden;rotatable=0;points=[[0,0.5],[1,0.5]];portConstraint=eastwest;" vertex="1" parent="o3EUqEFCxauuxiUmKvcj-45">
                    <mxGeometry y="320" width="470" height="26" as="geometry"/>
                </mxCell>
                <mxCell id="o3EUqEFCxauuxiUmKvcj-74" value="modifierCode(String):String" style="text;strokeColor=none;fillColor=none;align=left;verticalAlign=top;spacingLeft=4;spacingRight=4;overflow=hidden;rotatable=0;points=[[0,0.5],[1,0.5]];portConstraint=eastwest;" vertex="1" parent="o3EUqEFCxauuxiUmKvcj-45">
                    <mxGeometry y="346" width="470" height="26" as="geometry"/>
                </mxCell>
                <mxCell id="o3EUqEFCxauuxiUmKvcj-75" value="modifierDuration(Number):Number" style="text;strokeColor=none;fillColor=none;align=left;verticalAlign=top;spacingLeft=4;spacingRight=4;overflow=hidden;rotatable=0;points=[[0,0.5],[1,0.5]];portConstraint=eastwest;" vertex="1" parent="o3EUqEFCxauuxiUmKvcj-45">
                    <mxGeometry y="372" width="470" height="26" as="geometry"/>
                </mxCell>
                <mxCell id="o3EUqEFCxauuxiUmKvcj-76" value="modifierGenre(String):String" style="text;strokeColor=none;fillColor=none;align=left;verticalAlign=top;spacingLeft=4;spacingRight=4;overflow=hidden;rotatable=0;points=[[0,0.5],[1,0.5]];portConstraint=eastwest;" vertex="1" parent="o3EUqEFCxauuxiUmKvcj-45">
                    <mxGeometry y="398" width="470" height="26" as="geometry"/>
                </mxCell>
                <mxCell id="o3EUqEFCxauuxiUmKvcj-77" value="modifierCategorie(String):String" style="text;strokeColor=none;fillColor=none;align=left;verticalAlign=top;spacingLeft=4;spacingRight=4;overflow=hidden;rotatable=0;points=[[0,0.5],[1,0.5]];portConstraint=eastwest;" vertex="1" parent="o3EUqEFCxauuxiUmKvcj-45">
                    <mxGeometry y="424" width="470" height="26" as="geometry"/>
                </mxCell>
                <mxCell id="o3EUqEFCxauuxiUmKvcj-78" value="modifierPays(String):String" style="text;strokeColor=none;fillColor=none;align=left;verticalAlign=top;spacingLeft=4;spacingRight=4;overflow=hidden;rotatable=0;points=[[0,0.5],[1,0.5]];portConstraint=eastwest;" vertex="1" parent="o3EUqEFCxauuxiUmKvcj-45">
                    <mxGeometry y="450" width="470" height="26" as="geometry"/>
                </mxCell>
                <mxCell id="o3EUqEFCxauuxiUmKvcj-79" value="modifierAnnee(Number):Number" style="text;strokeColor=none;fillColor=none;align=left;verticalAlign=top;spacingLeft=4;spacingRight=4;overflow=hidden;rotatable=0;points=[[0,0.5],[1,0.5]];portConstraint=eastwest;" vertex="1" parent="o3EUqEFCxauuxiUmKvcj-45">
                    <mxGeometry y="476" width="470" height="26" as="geometry"/>
                </mxCell>
                <mxCell id="o3EUqEFCxauuxiUmKvcj-80" value="modifierActeurs(String):String" style="text;strokeColor=none;fillColor=none;align=left;verticalAlign=top;spacingLeft=4;spacingRight=4;overflow=hidden;rotatable=0;points=[[0,0.5],[1,0.5]];portConstraint=eastwest;" vertex="1" parent="o3EUqEFCxauuxiUmKvcj-45">
                    <mxGeometry y="502" width="470" height="26" as="geometry"/>
                </mxCell>
                <mxCell id="o3EUqEFCxauuxiUmKvcj-81" value="modifierProducteur(String):String" style="text;strokeColor=none;fillColor=none;align=left;verticalAlign=top;spacingLeft=4;spacingRight=4;overflow=hidden;rotatable=0;points=[[0,0.5],[1,0.5]];portConstraint=eastwest;" vertex="1" parent="o3EUqEFCxauuxiUmKvcj-45">
                    <mxGeometry y="528" width="470" height="26" as="geometry"/>
                </mxCell>
                <mxCell id="o3EUqEFCxauuxiUmKvcj-82" value="modifierDateDeSortie(String):String" style="text;strokeColor=none;fillColor=none;align=left;verticalAlign=top;spacingLeft=4;spacingRight=4;overflow=hidden;rotatable=0;points=[[0,0.5],[1,0.5]];portConstraint=eastwest;" vertex="1" parent="o3EUqEFCxauuxiUmKvcj-45">
                    <mxGeometry y="554" width="470" height="26" as="geometry"/>
                </mxCell>
                <mxCell id="o3EUqEFCxauuxiUmKvcj-83" value="modifierResume(String):String" style="text;strokeColor=none;fillColor=none;align=left;verticalAlign=top;spacingLeft=4;spacingRight=4;overflow=hidden;rotatable=0;points=[[0,0.5],[1,0.5]];portConstraint=eastwest;" vertex="1" parent="o3EUqEFCxauuxiUmKvcj-45">
                    <mxGeometry y="580" width="470" height="26" as="geometry"/>
                </mxCell>
                <mxCell id="o3EUqEFCxauuxiUmKvcj-88" value="lireTitre():String" style="text;strokeColor=none;fillColor=none;align=left;verticalAlign=top;spacingLeft=4;spacingRight=4;overflow=hidden;rotatable=0;points=[[0,0.5],[1,0.5]];portConstraint=eastwest;" vertex="1" parent="o3EUqEFCxauuxiUmKvcj-45">
                    <mxGeometry y="606" width="470" height="26" as="geometry"/>
                </mxCell>
                <mxCell id="o3EUqEFCxauuxiUmKvcj-89" value="lireCode():String" style="text;strokeColor=none;fillColor=none;align=left;verticalAlign=top;spacingLeft=4;spacingRight=4;overflow=hidden;rotatable=0;points=[[0,0.5],[1,0.5]];portConstraint=eastwest;" vertex="1" parent="o3EUqEFCxauuxiUmKvcj-45">
                    <mxGeometry y="632" width="470" height="26" as="geometry"/>
                </mxCell>
                <mxCell id="o3EUqEFCxauuxiUmKvcj-90" value="lireDuration():Number" style="text;strokeColor=none;fillColor=none;align=left;verticalAlign=top;spacingLeft=4;spacingRight=4;overflow=hidden;rotatable=0;points=[[0,0.5],[1,0.5]];portConstraint=eastwest;" vertex="1" parent="o3EUqEFCxauuxiUmKvcj-45">
                    <mxGeometry y="658" width="470" height="26" as="geometry"/>
                </mxCell>
                <mxCell id="o3EUqEFCxauuxiUmKvcj-91" value="lireGenre():String" style="text;strokeColor=none;fillColor=none;align=left;verticalAlign=top;spacingLeft=4;spacingRight=4;overflow=hidden;rotatable=0;points=[[0,0.5],[1,0.5]];portConstraint=eastwest;" vertex="1" parent="o3EUqEFCxauuxiUmKvcj-45">
                    <mxGeometry y="684" width="470" height="26" as="geometry"/>
                </mxCell>
                <mxCell id="o3EUqEFCxauuxiUmKvcj-92" value="lireCategorie():String" style="text;strokeColor=none;fillColor=none;align=left;verticalAlign=top;spacingLeft=4;spacingRight=4;overflow=hidden;rotatable=0;points=[[0,0.5],[1,0.5]];portConstraint=eastwest;" vertex="1" parent="o3EUqEFCxauuxiUmKvcj-45">
                    <mxGeometry y="710" width="470" height="26" as="geometry"/>
                </mxCell>
                <mxCell id="o3EUqEFCxauuxiUmKvcj-93" value="lirePays():String" style="text;strokeColor=none;fillColor=none;align=left;verticalAlign=top;spacingLeft=4;spacingRight=4;overflow=hidden;rotatable=0;points=[[0,0.5],[1,0.5]];portConstraint=eastwest;" vertex="1" parent="o3EUqEFCxauuxiUmKvcj-45">
                    <mxGeometry y="736" width="470" height="26" as="geometry"/>
                </mxCell>
                <mxCell id="o3EUqEFCxauuxiUmKvcj-94" value="lireAnnee():Number" style="text;strokeColor=none;fillColor=none;align=left;verticalAlign=top;spacingLeft=4;spacingRight=4;overflow=hidden;rotatable=0;points=[[0,0.5],[1,0.5]];portConstraint=eastwest;" vertex="1" parent="o3EUqEFCxauuxiUmKvcj-45">
                    <mxGeometry y="762" width="470" height="26" as="geometry"/>
                </mxCell>
                <mxCell id="o3EUqEFCxauuxiUmKvcj-95" value="lireActeurs():String" style="text;strokeColor=none;fillColor=none;align=left;verticalAlign=top;spacingLeft=4;spacingRight=4;overflow=hidden;rotatable=0;points=[[0,0.5],[1,0.5]];portConstraint=eastwest;" vertex="1" parent="o3EUqEFCxauuxiUmKvcj-45">
                    <mxGeometry y="788" width="470" height="26" as="geometry"/>
                </mxCell>
                <mxCell id="o3EUqEFCxauuxiUmKvcj-96" value="lireProducteur():String" style="text;strokeColor=none;fillColor=none;align=left;verticalAlign=top;spacingLeft=4;spacingRight=4;overflow=hidden;rotatable=0;points=[[0,0.5],[1,0.5]];portConstraint=eastwest;" vertex="1" parent="o3EUqEFCxauuxiUmKvcj-45">
                    <mxGeometry y="814" width="470" height="26" as="geometry"/>
                </mxCell>
                <mxCell id="o3EUqEFCxauuxiUmKvcj-97" value="lireDateDeSortie():String" style="text;strokeColor=none;fillColor=none;align=left;verticalAlign=top;spacingLeft=4;spacingRight=4;overflow=hidden;rotatable=0;points=[[0,0.5],[1,0.5]];portConstraint=eastwest;" vertex="1" parent="o3EUqEFCxauuxiUmKvcj-45">
                    <mxGeometry y="840" width="470" height="26" as="geometry"/>
                </mxCell>
                <mxCell id="o3EUqEFCxauuxiUmKvcj-98" value="lireResume():String" style="text;strokeColor=none;fillColor=none;align=left;verticalAlign=top;spacingLeft=4;spacingRight=4;overflow=hidden;rotatable=0;points=[[0,0.5],[1,0.5]];portConstraint=eastwest;" vertex="1" parent="o3EUqEFCxauuxiUmKvcj-45">
                    <mxGeometry y="866" width="470" height="26" as="geometry"/>
                </mxCell>
                <mxCell id="o3EUqEFCxauuxiUmKvcj-73" value="" style="endArrow=diamondThin;endFill=1;endSize=24;html=1;exitX=1;exitY=0.5;exitDx=0;exitDy=0;entryX=0;entryY=0;entryDx=0;entryDy=0;" edge="1" parent="1" source="o3EUqEFCxauuxiUmKvcj-28" target="o3EUqEFCxauuxiUmKvcj-17">
                    <mxGeometry width="160" relative="1" as="geometry">
                        <mxPoint x="650" y="810" as="sourcePoint"/>
                        <mxPoint x="680" y="1200" as="targetPoint"/>
                        <Array as="points"/>
                    </mxGeometry>
                </mxCell>
                <mxCell id="i4w1u3LMX8sEiAKsct7O-40" style="edgeStyle=none;html=1;exitX=0.5;exitY=0;exitDx=0;exitDy=0;entryX=0.571;entryY=0.011;entryDx=0;entryDy=0;entryPerimeter=0;" edge="1" parent="1" source="o3EUqEFCxauuxiUmKvcj-25" target="o3EUqEFCxauuxiUmKvcj-25">
                    <mxGeometry relative="1" as="geometry"/>
                </mxCell>
            </root>
        </mxGraphModel>
    </diagram>
</mxfile>